# xmcd
#
# Track frame offsets: 
#        150
#        16434
#        33374
#        57134
#        75121
#        98251
#        117310
#        131572
#        147465
#        167982
#        191079
#
# Disc length: 2745 seconds
#
# Revision: 5
# Processed by: cddbd v1.5.2PL0 Copyright (c) Steve Scherf et al.
# Submitted via: ExactAudioCopy v0.95b4
#
DISCID=880ab70b
DTITLE=Chris Botti - A Thousand Kisses Deep
DYEAR=2003
DGENRE=Smooth Jazz
TTITLE0=Indian Summer
TTITLE1=Do It In Luxury
TTITLE2=The Look Of Love
TTITLE3=A Thousand Kisses Deep
TTITLE4=Ever Since We Met
TTITLE5=Back Into My Heart
TTITLE6=My Funny Valentine
TTITLE7=The Last Three Minutes
TTITLE8=If I Could
TTITLE9=She Comes From Somewhere
TTITLE10=Love Gets Old
EXTD=YEAR: 2003
EXTT0=
EXTT1=
EXTT2=
EXTT3=
EXTT4=
EXTT5=
EXTT6=
EXTT7=
EXTT8=
EXTT9=
EXTT10=
PLAYORDER=
